{
    "packets": [
        {
            "codec_type": "video",
            "stream_index": 1,
            "pts": 900000,
            "pts_time": "10.000000",
            "dts": 900000,
            "dts_time": "10.000000",
            "duration": 3000,
            "duration_time": "0.033333",
            "size": "34082",
            "pos": "1128",
            "flags": "K__",
            "side_data_list": [
                {
                    "side_data_type": "MPEGTS Stream ID",
                    "id": 224
                }
            ]
        },
        {
            "codec_type": "video",
            "stream_index": 1,
            "pts": 912000,
            "pts_time": "10.133333",
            "dts": 903000,
            "dts_time": "10.033333",
            "duration": 3000,
            "duration_time": "0.033333",
            "size": "9097",
            "pos": "36848",
            "flags": "___",
            "side_data_list": [
                {
                    "side_data_type": "MPEGTS Stream ID",
                    "id": 224
                }
            ]
        },
        {
            "codec_type": "video",
            "stream_index": 1,
            "pts": 906000,
            "pts_time": "10.066667",
            "dts": 906000,
            "dts_time": "10.066667",
            "duration": 3000,
            "duration_time": "0.033333",
            "size": "1860",
            "pos": "46624",
            "flags": "___",
            "side_data_list": [
                {
                    "side_data_type": "MPEGTS Stream ID",
                    "id": 224
                }
            ]
        },
        {
            "codec_type": "video",
            "stream_index": 1,
            "pts": 903000,
            "pts_time": "10.033333",
            "dts": 909000,
            "dts_time": "10.100000",
            "duration": 3000,
            "duration_time": "0.033333",
            "size": "536",
            "pos": "49632",
            "flags": "___",
            "side_data_list": [
                {
                    "side_data_type": "MPEGTS Stream ID",
                    "id": 224
                }
            ]
        },
        {
            "codec_type": "video",
            "stream_index": 1,
            "pts": 909000,
            "pts_time": "10.100000",
            "dts": 912000,
            "dts_time": "10.133333",
            "duration": 3000,
            "duration_time": "0.033333",
            "size": "653",
            "pos": "50760",
            "flags": "___",
            "side_data_list": [
                {
                    "side_data_type": "MPEGTS Stream ID",
                    "id": 224
                }
            ]
        },
        {
            "codec_type": "video",
            "stream_index": 1,
            "pts": 924000,
            "pts_time": "10.266667",
            "dts": 915000,
            "dts_time": "10.166667",
            "duration": 3000,
            "duration_time": "0.033333",
            "size": "9177",
            "pos": "52452",
            "flags": "___",
            "side_data_list": [
                {
                    "side_data_type": "MPEGTS Stream ID",
                    "id": 224
                }
            ]
        },
        {
            "codec_type": "video",
            "stream_index": 1,
            "pts": 918000,
            "pts_time": "10.200000",
            "dts": 918000,
            "dts_time": "10.200000",
            "duration": 3000,
            "duration_time": "0.033333",
            "size": "2279",
            "pos": "62416",
            "flags": "___",
            "side_data_list": [
                {
                    "side_data_type": "MPEGTS Stream ID",
                    "id": 224
                }
            ]
        },
        {
            "codec_type": "video",
            "stream_index": 1,
            "pts": 915000,
            "pts_time": "10.166667",
            "dts": 921000,
            "dts_time": "10.233333",
            "duration": 3000,
            "duration_time": "0.033333",
            "size": "632",
            "pos": "65424",
            "flags": "___",
            "side_data_list": [
                {
                    "side_data_type": "MPEGTS Stream ID",
                    "id": 224
                }
            ]
        },
        {
            "codec_type": "video",
            "stream_index": 1,
            "pts": 921000,
            "pts_time": "10.233333",
            "dts": 924000,
            "dts_time": "10.266667",
            "duration": 3000,
            "duration_time": "0.033333",
            "size": "708",
            "pos": "66552",
            "flags": "___",
            "side_data_list": [
                {
                    "side_data_type": "MPEGTS Stream ID",
                    "id": 224
                }
            ]
        },
        {
            "codec_type": "video",
            "stream_index": 1,
            "pts": 936000,
            "pts_time": "10.400000",
            "dts": 927000,
            "dts_time": "10.300000",
            "duration": 3000,
            "duration_time": "0.033333",
            "size": "9790",
            "pos": "67680",
            "flags": "___",
            "side_data_list": [
                {
                    "side_data_type": "MPEGTS Stream ID",
                    "id": 224
                }
            ]
        },
        {
            "codec_type": "video",
            "stream_index": 1,
            "pts": 930000,
            "pts_time": "10.333333",
            "dts": 930000,
            "dts_time": "10.333333",
            "duration": 3000,
            "duration_time": "0.033333",
            "size": "2355",
            "pos": "78584",
            "flags": "___",
            "side_data_list": [
                {
                    "side_data_type": "MPEGTS Stream ID",
                    "id": 224
                }
            ]
        },
        {
            "codec_type": "video",
            "stream_index": 1,
            "pts": 927000,
            "pts_time": "10.300000",
            "dts": 933000,
            "dts_time": "10.366667",
            "duration": 3000,
            "duration_time": "0.033333",
            "size": "788",
            "pos": "81404",
            "flags": "___",
            "side_data_list": [
                {
                    "side_data_type": "MPEGTS Stream ID",
                    "id": 224
                }
            ]
        },
        {
            "codec_type": "video",
            "stream_index": 1,
            "pts": 933000,
            "pts_time": "10.366667",
            "dts": 936000,
            "dts_time": "10.400000",
            "duration": 3000,
            "duration_time": "0.033333",
            "size": "958",
            "pos": "83096",
            "flags": "___",
            "side_data_list": [
                {
                    "side_data_type": "MPEGTS Stream ID",
                    "id": 224
                }
            ]
        },
        {
            "codec_type": "video",
            "stream_index": 1,
            "pts": 948000,
            "pts_time": "10.533333",
            "dts": 939000,
            "dts_time": "10.433333",
            "duration": 3000,
            "duration_time": "0.033333",
            "size": "9425",
            "pos": "84412",
            "flags": "___",
            "side_data_list": [
                {
                    "side_data_type": "MPEGTS Stream ID",
                    "id": 224
                }
            ]
        },
        {
            "codec_type": "video",
            "stream_index": 1,
            "pts": 942000,
            "pts_time": "10.466667",
            "dts": 942000,
            "dts_time": "10.466667",
            "duration": 3000,
            "duration_time": "0.033333",
            "size": "1907",
            "pos": "94940",
            "flags": "___",
            "side_data_list": [
                {
                    "side_data_type": "MPEGTS Stream ID",
                    "id": 224
                }
            ]
        },
        {
            "codec_type": "video",
            "stream_index": 1,
            "pts": 939000,
            "pts_time": "10.433333",
            "dts": 945000,
            "dts_time": "10.500000",
            "duration": 3000,
            "duration_time": "0.033333",
            "size": "763",
            "pos": "97384",
            "flags": "___",
            "side_data_list": [
                {
                    "side_data_type": "MPEGTS Stream ID",
                    "id": 224
                }
            ]
        },
        {
            "codec_type": "video",
            "stream_index": 1,
            "pts": 945000,
            "pts_time": "10.500000",
            "dts": 948000,
            "dts_time": "10.533333",
            "duration": 3000,
            "duration_time": "0.033333",
            "size": "673",
            "pos": "98512",
            "flags": "___",
            "side_data_list": [
                {
                    "side_data_type": "MPEGTS Stream ID",
                    "id": 224
                }
            ]
        },
        {
            "codec_type": "video",
            "stream_index": 1,
            "pts": 960000,
            "pts_time": "10.666667",
            "dts": 951000,
            "dts_time": "10.566667",
            "duration": 3000,
            "duration_time": "0.033333",
            "size": "7981",
            "pos": "100016",
            "flags": "___",
            "side_data_list": [
                {
                    "side_data_type": "MPEGTS Stream ID",
                    "id": 224
                }
            ]
        },
        {
            "codec_type": "video",
            "stream_index": 1,
            "pts": 954000,
            "pts_time": "10.600000",
            "dts": 954000,
            "dts_time": "10.600000",
            "duration": 3000,
            "duration_time": "0.033333",
            "size": "1776",
            "pos": "108664",
            "flags": "___",
            "side_data_list": [
                {
                    "side_data_type": "MPEGTS Stream ID",
                    "id": 224
                }
            ]
        },
        {
            "codec_type": "video",
            "stream_index": 1,
            "pts": 951000,
            "pts_time": "10.566667",
            "dts": 957000,
            "dts_time": "10.633333",
            "duration": 3000,
            "duration_time": "0.033333",
            "size": "617",
            "pos": "111108",
            "flags": "___",
            "side_data_list": [
                {
                    "side_data_type": "MPEGTS Stream ID",
                    "id": 224
                }
            ]
        },
        {
            "codec_type": "video",
            "stream_index": 1,
            "pts": 957000,
            "pts_time": "10.633333",
            "dts": 960000,
            "dts_time": "10.666667",
            "duration": 3000,
            "duration_time": "0.033333",
            "size": "635",
            "pos": "112236",
            "flags": "___",
            "side_data_list": [
                {
                    "side_data_type": "MPEGTS Stream ID",
                    "id": 224
                }
            ]
        },
        {
            "codec_type": "video",
            "stream_index": 1,
            "pts": 972000,
            "pts_time": "10.800000",
            "dts": 963000,
            "dts_time": "10.700000",
            "duration": 3000,
            "duration_time": "0.033333",
            "size": "7111",
            "pos": "113740",
            "flags": "___",
            "side_data_list": [
                {
                    "side_data_type": "MPEGTS Stream ID",
                    "id": 224
                }
            ]
        },
        {
            "codec_type": "video",
            "stream_index": 1,
            "pts": 966000,
            "pts_time": "10.733333",
            "dts": 966000,
            "dts_time": "10.733333",
            "duration": 3000,
            "duration_time": "0.033333",
            "size": "1444",
            "pos": "121448",
            "flags": "___",
            "side_data_list": [
                {
                    "side_data_type": "MPEGTS Stream ID",
                    "id": 224
                }
            ]
        },
        {
            "codec_type": "video",
            "stream_index": 1,
            "pts": 963000,
            "pts_time": "10.700000",
            "dts": 969000,
            "dts_time": "10.766667",
            "duration": 3000,
            "duration_time": "0.033333",
            "size": "580",
            "pos": "123704",
            "flags": "___",
            "side_data_list": [
                {
                    "side_data_type": "MPEGTS Stream ID",
                    "id": 224
                }
            ]
        },
        {
            "codec_type": "video",
            "stream_index": 1,
            "pts": 969000,
            "pts_time": "10.766667",
            "dts": 972000,
            "dts_time": "10.800000",
            "duration": 3000,
            "duration_time": "0.033333",
            "size": "455",
            "pos": "124832",
            "flags": "___",
            "side_data_list": [
                {
                    "side_data_type": "MPEGTS Stream ID",
                    "id": 224
                }
            ]
        },
        {
            "codec_type": "video",
            "stream_index": 1,
            "pts": 984000,
            "pts_time": "10.933333",
            "dts": 975000,
            "dts_time": "10.833333",
            "duration": 3000,
            "duration_time": "0.033333",
            "size": "6780",
            "pos": "125772",
            "flags": "___",
            "side_data_list": [
                {
                    "side_data_type": "MPEGTS Stream ID",
                    "id": 224
                }
            ]
        },
        {
            "codec_type": "video",
            "stream_index": 1,
            "pts": 978000,
            "pts_time": "10.866667",
            "dts": 978000,
            "dts_time": "10.866667",
            "duration": 3000,
            "duration_time": "0.033333",
            "size": "1323",
            "pos": "133292",
            "flags": "___",
            "side_data_list": [
                {
                    "side_data_type": "MPEGTS Stream ID",
                    "id": 224
                }
            ]
        },
        {
            "codec_type": "video",
            "stream_index": 1,
            "pts": 975000,
            "pts_time": "10.833333",
            "dts": 981000,
            "dts_time": "10.900000",
            "duration": 3000,
            "duration_time": "0.033333",
            "size": "437",
            "pos": "135172",
            "flags": "___",
            "side_data_list": [
                {
                    "side_data_type": "MPEGTS Stream ID",
                    "id": 224
                }
            ]
        },
        {
            "codec_type": "video",
            "stream_index": 1,
            "pts": 981000,
            "pts_time": "10.900000",
            "dts": 984000,
            "dts_time": "10.933333",
            "duration": 3000,
            "duration_time": "0.033333",
            "size": "525",
            "pos": "136300",
            "flags": "___",
            "side_data_list": [
                {
                    "side_data_type": "MPEGTS Stream ID",
                    "id": 224
                }
            ]
        },
        {
            "codec_type": "video",
            "stream_index": 1,
            "pts": 996000,
            "pts_time": "11.066667",
            "dts": 987000,
            "dts_time": "10.966667",
            "duration": 3000,
            "duration_time": "0.033333",
            "size": "8236",
            "pos": "137428",
            "flags": "___",
            "side_data_list": [
                {
                    "side_data_type": "MPEGTS Stream ID",
                    "id": 224
                }
            ]
        },
        {
            "codec_type": "video",
            "stream_index": 1,
            "pts": 990000,
            "pts_time": "11.000000",
            "dts": 990000,
            "dts_time": "11.000000",
            "duration": 3000,
            "duration_time": "0.033333",
            "size": "1848",
            "pos": "146640",
            "flags": "___",
            "side_data_list": [
                {
                    "side_data_type": "MPEGTS Stream ID",
                    "id": 224
                }
            ]
        },
        {
            "codec_type": "video",
            "stream_index": 1,
            "pts": 987000,
            "pts_time": "10.966667",
            "dts": 993000,
            "dts_time": "11.033333",
            "duration": 3000,
            "duration_time": "0.033333",
            "size": "620",
            "pos": "149084",
            "flags": "___",
            "side_data_list": [
                {
                    "side_data_type": "MPEGTS Stream ID",
                    "id": 224
                }
            ]
        },
        {
            "codec_type": "video",
            "stream_index": 1,
            "pts": 993000,
            "pts_time": "11.033333",
            "dts": 996000,
            "dts_time": "11.066667",
            "duration": 3000,
            "duration_time": "0.033333",
            "size": "548",
            "pos": "150212",
            "flags": "___",
            "side_data_list": [
                {
                    "side_data_type": "MPEGTS Stream ID",
                    "id": 224
                }
            ]
        },
        {
            "codec_type": "video",
            "stream_index": 1,
            "pts": 1008000,
            "pts_time": "11.200000",
            "dts": 999000,
            "dts_time": "11.100000",
            "duration": 3000,
            "duration_time": "0.033333",
            "size": "8127",
            "pos": "151528",
            "flags": "___",
            "side_data_list": [
                {
                    "side_data_type": "MPEGTS Stream ID",
                    "id": 224
                }
            ]
        },
        {
            "codec_type": "video",
            "stream_index": 1,
            "pts": 1002000,
            "pts_time": "11.133333",
            "dts": 1002000,
            "dts_time": "11.133333",
            "duration": 3000,
            "duration_time": "0.033333",
            "size": "1368",
            "pos": "160364",
            "flags": "___",
            "side_data_list": [
                {
                    "side_data_type": "MPEGTS Stream ID",
                    "id": 224
                }
            ]
        },
        {
            "codec_type": "video",
            "stream_index": 1,
            "pts": 999000,
            "pts_time": "11.100000",
            "dts": 1005000,
            "dts_time": "11.166667",
            "duration": 3000,
            "duration_time": "0.033333",
            "size": "465",
            "pos": "162620",
            "flags": "___",
            "side_data_list": [
                {
                    "side_data_type": "MPEGTS Stream ID",
                    "id": 224
                }
            ]
        },
        {
            "codec_type": "video",
            "stream_index": 1,
            "pts": 1005000,
            "pts_time": "11.166667",
            "dts": 1008000,
            "dts_time": "11.200000",
            "duration": 3000,
            "duration_time": "0.033333",
            "size": "386",
            "pos": "163560",
            "flags": "___",
            "side_data_list": [
                {
                    "side_data_type": "MPEGTS Stream ID",
                    "id": 224
                }
            ]
        },
        {
            "codec_type": "video",
            "stream_index": 1,
            "pts": 1020000,
            "pts_time": "11.333333",
            "dts": 1011000,
            "dts_time": "11.233333",
            "duration": 3000,
            "duration_time": "0.033333",
            "size": "8151",
            "pos": "164876",
            "flags": "___",
            "side_data_list": [
                {
                    "side_data_type": "MPEGTS Stream ID",
                    "id": 224
                }
            ]
        },
        {
            "codec_type": "video",
            "stream_index": 1,
            "pts": 1014000,
            "pts_time": "11.266667",
            "dts": 1014000,
            "dts_time": "11.266667",
            "duration": 3000,
            "duration_time": "0.033333",
            "size": "1535",
            "pos": "173524",
            "flags": "___",
            "side_data_list": [
                {
                    "side_data_type": "MPEGTS Stream ID",
                    "id": 224
                }
            ]
        },
        {
            "codec_type": "video",
            "stream_index": 1,
            "pts": 1011000,
            "pts_time": "11.233333",
            "dts": 1017000,
            "dts_time": "11.300000",
            "duration": 3000,
            "duration_time": "0.033333",
            "size": "453",
            "pos": "175592",
            "flags": "___",
            "side_data_list": [
                {
                    "side_data_type": "MPEGTS Stream ID",
                    "id": 224
                }
            ]
        },
        {
            "codec_type": "video",
            "stream_index": 1,
            "pts": 1017000,
            "pts_time": "11.300000",
            "dts": 1020000,
            "dts_time": "11.333333",
            "duration": 3000,
            "duration_time": "0.033333",
            "size": "621",
            "pos": "176908",
            "flags": "___",
            "side_data_list": [
                {
                    "side_data_type": "MPEGTS Stream ID",
                    "id": 224
                }
            ]
        },
        {
            "codec_type": "video",
            "stream_index": 1,
            "pts": 1032000,
            "pts_time": "11.466667",
            "dts": 1023000,
            "dts_time": "11.366667",
            "duration": 3000,
            "duration_time": "0.033333",
            "size": "9826",
            "pos": "178036",
            "flags": "___",
            "side_data_list": [
                {
                    "side_data_type": "MPEGTS Stream ID",
                    "id": 224
                }
            ]
        },
        {
            "codec_type": "video",
            "stream_index": 1,
            "pts": 1026000,
            "pts_time": "11.400000",
            "dts": 1026000,
            "dts_time": "11.400000",
            "duration": 3000,
            "duration_time": "0.033333",
            "size": "1937",
            "pos": "188940",
            "flags": "___",
            "side_data_list": [
                {
                    "side_data_type": "MPEGTS Stream ID",
                    "id": 224
                }
            ]
        },
        {
            "codec_type": "video",
            "stream_index": 1,
            "pts": 1023000,
            "pts_time": "11.366667",
            "dts": 1029000,
            "dts_time": "11.433333",
            "duration": 3000,
            "duration_time": "0.033333",
            "size": "638",
            "pos": "191384",
            "flags": "___",
            "side_data_list": [
                {
                    "side_data_type": "MPEGTS Stream ID",
                    "id": 224
                }
            ]
        },
        {
            "codec_type": "video",
            "stream_index": 1,
            "pts": 1029000,
            "pts_time": "11.433333",
            "dts": 1032000,
            "dts_time": "11.466667",
            "duration": 3000,
            "duration_time": "0.033333",
            "size": "582",
            "pos": "192888",
            "flags": "___",
            "side_data_list": [
                {
                    "side_data_type": "MPEGTS Stream ID",
                    "id": 224
                }
            ]
        },
        {
            "codec_type": "video",
            "stream_index": 1,
            "pts": 1044000,
            "pts_time": "11.600000",
            "dts": 1035000,
            "dts_time": "11.500000",
            "duration": 3000,
            "duration_time": "0.033333",
            "size": "7923",
            "pos": "193828",
            "flags": "___",
            "side_data_list": [
                {
                    "side_data_type": "MPEGTS Stream ID",
                    "id": 224
                }
            ]
        },
        {
            "codec_type": "video",
            "stream_index": 1,
            "pts": 1038000,
            "pts_time": "11.533333",
            "dts": 1038000,
            "dts_time": "11.533333",
            "duration": 3000,
            "duration_time": "0.033333",
            "size": "1431",
            "pos": "202852",
            "flags": "___",
            "side_data_list": [
                {
                    "side_data_type": "MPEGTS Stream ID",
                    "id": 224
                }
            ]
        },
        {
            "codec_type": "video",
            "stream_index": 1,
            "pts": 1035000,
            "pts_time": "11.500000",
            "dts": 1041000,
            "dts_time": "11.566667",
            "duration": 3000,
            "duration_time": "0.033333",
            "size": "522",
            "pos": "204732",
            "flags": "___",
            "side_data_list": [
                {
                    "side_data_type": "MPEGTS Stream ID",
                    "id": 224
                }
            ]
        },
        {
            "codec_type": "video",
            "stream_index": 1,
            "pts": 1041000,
            "pts_time": "11.566667",
            "dts": 1044000,
            "dts_time": "11.600000",
            "duration": 3000,
            "duration_time": "0.033333",
            "size": "364",
            "pos": "205672",
            "flags": "___",
            "side_data_list": [
                {
                    "side_data_type": "MPEGTS Stream ID",
                    "id": 224
                }
            ]
        },
        {
            "codec_type": "video",
            "stream_index": 1,
            "pts": 1056000,
            "pts_time": "11.733333",
            "dts": 1047000,
            "dts_time": "11.633333",
            "duration": 3000,
            "duration_time": "0.033333",
            "size": "7166",
            "pos": "206988",
            "flags": "___",
            "side_data_list": [
                {
                    "side_data_type": "MPEGTS Stream ID",
                    "id": 224
                }
            ]
        },
        {
            "codec_type": "video",
            "stream_index": 1,
            "pts": 1050000,
            "pts_time": "11.666667",
            "dts": 1050000,
            "dts_time": "11.666667",
            "duration": 3000,
            "duration_time": "0.033333",
            "size": "1565",
            "pos": "214884",
            "flags": "___",
            "side_data_list": [
                {
                    "side_data_type": "MPEGTS Stream ID",
                    "id": 224
                }
            ]
        },
        {
            "codec_type": "video",
            "stream_index": 1,
            "pts": 1047000,
            "pts_time": "11.633333",
            "dts": 1053000,
            "dts_time": "11.700000",
            "duration": 3000,
            "duration_time": "0.033333",
            "size": "482",
            "pos": "217140",
            "flags": "___",
            "side_data_list": [
                {
                    "side_data_type": "MPEGTS Stream ID",
                    "id": 224
                }
            ]
        },
        {
            "codec_type": "video",
            "stream_index": 1,
            "pts": 1053000,
            "pts_time": "11.700000",
            "dts": 1056000,
            "dts_time": "11.733333",
            "duration": 3000,
            "duration_time": "0.033333",
            "size": "518",
            "pos": "218080",
            "flags": "___",
            "side_data_list": [
                {
                    "side_data_type": "MPEGTS Stream ID",
                    "id": 224
                }
            ]
        },
        {
            "codec_type": "video",
            "stream_index": 1,
            "pts": 1068000,
            "pts_time": "11.866667",
            "dts": 1059000,
            "dts_time": "11.766667",
            "duration": 3000,
            "duration_time": "0.033333",
            "size": "8373",
            "pos": "219396",
            "flags": "___",
            "side_data_list": [
                {
                    "side_data_type": "MPEGTS Stream ID",
                    "id": 224
                }
            ]
        },
        {
            "codec_type": "video",
            "stream_index": 1,
            "pts": 1062000,
            "pts_time": "11.800000",
            "dts": 1062000,
            "dts_time": "11.800000",
            "duration": 3000,
            "duration_time": "0.033333",
            "size": "1828",
            "pos": "228420",
            "flags": "___",
            "side_data_list": [
                {
                    "side_data_type": "MPEGTS Stream ID",
                    "id": 224
                }
            ]
        },
        {
            "codec_type": "video",
            "stream_index": 1,
            "pts": 1059000,
            "pts_time": "11.766667",
            "dts": 1065000,
            "dts_time": "11.833333",
            "duration": 3000,
            "duration_time": "0.033333",
            "size": "615",
            "pos": "230864",
            "flags": "___",
            "side_data_list": [
                {
                    "side_data_type": "MPEGTS Stream ID",
                    "id": 224
                }
            ]
        },
        {
            "codec_type": "video",
            "stream_index": 1,
            "pts": 1065000,
            "pts_time": "11.833333",
            "dts": 1068000,
            "dts_time": "11.866667",
            "duration": 3000,
            "duration_time": "0.033333",
            "size": "639",
            "pos": "232368",
            "flags": "___",
            "side_data_list": [
                {
                    "side_data_type": "MPEGTS Stream ID",
                    "id": 224
                }
            ]
        },
        {
            "codec_type": "video",
            "stream_index": 1,
            "pts": 1080000,
            "pts_time": "12.000000",
            "dts": 1071000,
            "dts_time": "11.900000",
            "duration": 3000,
            "duration_time": "0.033333",
            "size": "9399",
            "pos": "233496",
            "flags": "___",
            "side_data_list": [
                {
                    "side_data_type": "MPEGTS Stream ID",
                    "id": 224
                }
            ]
        },
        {
            "codec_type": "video",
            "stream_index": 1,
            "pts": 1074000,
            "pts_time": "11.933333",
            "dts": 1074000,
            "dts_time": "11.933333",
            "duration": 3000,
            "duration_time": "0.033333",
            "size": "1692",
            "pos": "243836",
            "flags": "___",
            "side_data_list": [
                {
                    "side_data_type": "MPEGTS Stream ID",
                    "id": 224
                }
            ]
        },
        {
            "codec_type": "video",
            "stream_index": 1,
            "pts": 1071000,
            "pts_time": "11.900000",
            "dts": 1077000,
            "dts_time": "11.966667",
            "duration": 3000,
            "duration_time": "0.033333",
            "size": "558",
            "pos": "246092",
            "flags": "___",
            "side_data_list": [
                {
                    "side_data_type": "MPEGTS Stream ID",
                    "id": 224
                }
            ]
        },
        {
            "codec_type": "video",
            "stream_index": 1,
            "pts": 1077000,
            "pts_time": "11.966667",
            "dts": 1080000,
            "dts_time": "12.000000",
            "duration": 3000,
            "duration_time": "0.033333",
            "size": "538",
            "pos": "247596",
            "flags": "___",
            "side_data_list": [
                {
                    "side_data_type": "MPEGTS Stream ID",
                    "id": 224
                }
            ]
        },
        {
            "codec_type": "video",
            "stream_index": 1,
            "pts": 1092000,
            "pts_time": "12.133333",
            "dts": 1083000,
            "dts_time": "12.033333",
            "duration": 3000,
            "duration_time": "0.033333",
            "size": "9278",
            "pos": "248724",
            "flags": "___",
            "side_data_list": [
                {
                    "side_data_type": "MPEGTS Stream ID",
                    "id": 224
                }
            ]
        },
        {
            "codec_type": "video",
            "stream_index": 1,
            "pts": 1086000,
            "pts_time": "12.066667",
            "dts": 1086000,
            "dts_time": "12.066667",
            "duration": 3000,
            "duration_time": "0.033333",
            "size": "1625",
            "pos": "259064",
            "flags": "___",
            "side_data_list": [
                {
                    "side_data_type": "MPEGTS Stream ID",
                    "id": 224
                }
            ]
        },
        {
            "codec_type": "video",
            "stream_index": 1,
            "pts": 1083000,
            "pts_time": "12.033333",
            "dts": 1089000,
            "dts_time": "12.100000",
            "duration": 3000,
            "duration_time": "0.033333",
            "size": "518",
            "pos": "260944",
            "flags": "___",
            "side_data_list": [
                {
                    "side_data_type": "MPEGTS Stream ID",
                    "id": 224
                }
            ]
        },
        {
            "codec_type": "video",
            "stream_index": 1,
            "pts": 1089000,
            "pts_time": "12.100000",
            "dts": 1092000,
            "dts_time": "12.133333",
            "duration": 3000,
            "duration_time": "0.033333",
            "size": "557",
            "pos": "261884",
            "flags": "___",
            "side_data_list": [
                {
                    "side_data_type": "MPEGTS Stream ID",
                    "id": 224
                }
            ]
        },
        {
            "codec_type": "video",
            "stream_index": 1,
            "pts": 1104000,
            "pts_time": "12.266667",
            "dts": 1095000,
            "dts_time": "12.166667",
            "duration": 3000,
            "duration_time": "0.033333",
            "size": "8101",
            "pos": "263388",
            "flags": "___",
            "side_data_list": [
                {
                    "side_data_type": "MPEGTS Stream ID",
                    "id": 224
                }
            ]
        },
        {
            "codec_type": "video",
            "stream_index": 1,
            "pts": 1098000,
            "pts_time": "12.200000",
            "dts": 1098000,
            "dts_time": "12.200000",
            "duration": 3000,
            "duration_time": "0.033333",
            "size": "1464",
            "pos": "272224",
            "flags": "___",
            "side_data_list": [
                {
                    "side_data_type": "MPEGTS Stream ID",
                    "id": 224
                }
            ]
        },
        {
            "codec_type": "video",
            "stream_index": 1,
            "pts": 1095000,
            "pts_time": "12.166667",
            "dts": 1101000,
            "dts_time": "12.233333",
            "duration": 3000,
            "duration_time": "0.033333",
            "size": "426",
            "pos": "274668",
            "flags": "___",
            "side_data_list": [
                {
                    "side_data_type": "MPEGTS Stream ID",
                    "id": 224
                }
            ]
        },
        {
            "codec_type": "video",
            "stream_index": 1,
            "pts": 1101000,
            "pts_time": "12.233333",
            "dts": 1104000,
            "dts_time": "12.266667",
            "duration": 3000,
            "duration_time": "0.033333",
            "size": "417",
            "pos": "275608",
            "flags": "___",
            "side_data_list": [
                {
                    "side_data_type": "MPEGTS Stream ID",
                    "id": 224
                }
            ]
        },
        {
            "codec_type": "video",
            "stream_index": 1,
            "pts": 1116000,
            "pts_time": "12.400000",
            "dts": 1107000,
            "dts_time": "12.300000",
            "duration": 3000,
            "duration_time": "0.033333",
            "size": "7971",
            "pos": "276924",
            "flags": "___",
            "side_data_list": [
                {
                    "side_data_type": "MPEGTS Stream ID",
                    "id": 224
                }
            ]
        },
        {
            "codec_type": "video",
            "stream_index": 1,
            "pts": 1110000,
            "pts_time": "12.333333",
            "dts": 1110000,
            "dts_time": "12.333333",
            "duration": 3000,
            "duration_time": "0.033333",
            "size": "1443",
            "pos": "285384",
            "flags": "___",
            "side_data_list": [
                {
                    "side_data_type": "MPEGTS Stream ID",
                    "id": 224
                }
            ]
        },
        {
            "codec_type": "video",
            "stream_index": 1,
            "pts": 1107000,
            "pts_time": "12.300000",
            "dts": 1113000,
            "dts_time": "12.366667",
            "duration": 3000,
            "duration_time": "0.033333",
            "size": "476",
            "pos": "287264",
            "flags": "___",
            "side_data_list": [
                {
                    "side_data_type": "MPEGTS Stream ID",
                    "id": 224
                }
            ]
        },
        {
            "codec_type": "video",
            "stream_index": 1,
            "pts": 1113000,
            "pts_time": "12.366667",
            "dts": 1116000,
            "dts_time": "12.400000",
            "duration": 3000,
            "duration_time": "0.033333",
            "size": "423",
            "pos": "288580",
            "flags": "___",
            "side_data_list": [
                {
                    "side_data_type": "MPEGTS Stream ID",
                    "id": 224
                }
            ]
        },
        {
            "codec_type": "video",
            "stream_index": 1,
            "pts": 1128000,
            "pts_time": "12.533333",
            "dts": 1119000,
            "dts_time": "12.433333",
            "duration": 3000,
            "duration_time": "0.033333",
            "size": "7882",
            "pos": "289520",
            "flags": "___",
            "side_data_list": [
                {
                    "side_data_type": "MPEGTS Stream ID",
                    "id": 224
                }
            ]
        },
        {
            "codec_type": "video",
            "stream_index": 1,
            "pts": 1122000,
            "pts_time": "12.466667",
            "dts": 1122000,
            "dts_time": "12.466667",
            "duration": 3000,
            "duration_time": "0.033333",
            "size": "1236",
            "pos": "298356",
            "flags": "___",
            "side_data_list": [
                {
                    "side_data_type": "MPEGTS Stream ID",
                    "id": 224
                }
            ]
        },
        {
            "codec_type": "video",
            "stream_index": 1,
            "pts": 1119000,
            "pts_time": "12.433333",
            "dts": 1125000,
            "dts_time": "12.500000",
            "duration": 3000,
            "duration_time": "0.033333",
            "size": "445",
            "pos": "300048",
            "flags": "___",
            "side_data_list": [
                {
                    "side_data_type": "MPEGTS Stream ID",
                    "id": 224
                }
            ]
        },
        {
            "codec_type": "video",
            "stream_index": 1,
            "pts": 1125000,
            "pts_time": "12.500000",
            "dts": 1128000,
            "dts_time": "12.533333",
            "duration": 3000,
            "duration_time": "0.033333",
            "size": "428",
            "pos": "301176",
            "flags": "___",
            "side_data_list": [
                {
                    "side_data_type": "MPEGTS Stream ID",
                    "id": 224
                }
            ]
        },
        {
            "codec_type": "video",
            "stream_index": 1,
            "pts": 1140000,
            "pts_time": "12.666667",
            "dts": 1131000,
            "dts_time": "12.566667",
            "duration": 3000,
            "duration_time": "0.033333",
            "size": "8139",
            "pos": "302116",
            "flags": "___",
            "side_data_list": [
                {
                    "side_data_type": "MPEGTS Stream ID",
                    "id": 224
                }
            ]
        },
        {
            "codec_type": "video",
            "stream_index": 1,
            "pts": 1134000,
            "pts_time": "12.600000",
            "dts": 1134000,
            "dts_time": "12.600000",
            "duration": 3000,
            "duration_time": "0.033333",
            "size": "1227",
            "pos": "310952",
            "flags": "___",
            "side_data_list": [
                {
                    "side_data_type": "MPEGTS Stream ID",
                    "id": 224
                }
            ]
        },
        {
            "codec_type": "video",
            "stream_index": 1,
            "pts": 1131000,
            "pts_time": "12.566667",
            "dts": 1137000,
            "dts_time": "12.633333",
            "duration": 3000,
            "duration_time": "0.033333",
            "size": "440",
            "pos": "313020",
            "flags": "___",
            "side_data_list": [
                {
                    "side_data_type": "MPEGTS Stream ID",
                    "id": 224
                }
            ]
        },
        {
            "codec_type": "video",
            "stream_index": 1,
            "pts": 1137000,
            "pts_time": "12.633333",
            "dts": 1140000,
            "dts_time": "12.666667",
            "duration": 3000,
            "duration_time": "0.033333",
            "size": "467",
            "pos": "313960",
            "flags": "___",
            "side_data_list": [
                {
                    "side_data_type": "MPEGTS Stream ID",
                    "id": 224
                }
            ]
        },
        {
            "codec_type": "video",
            "stream_index": 1,
            "pts": 1152000,
            "pts_time": "12.800000",
            "dts": 1143000,
            "dts_time": "12.700000",
            "duration": 3000,
            "duration_time": "0.033333",
            "size": "8607",
            "pos": "315276",
            "flags": "___",
            "side_data_list": [
                {
                    "side_data_type": "MPEGTS Stream ID",
                    "id": 224
                }
            ]
        },
        {
            "codec_type": "video",
            "stream_index": 1,
            "pts": 1146000,
            "pts_time": "12.733333",
            "dts": 1146000,
            "dts_time": "12.733333",
            "duration": 3000,
            "duration_time": "0.033333",
            "size": "1283",
            "pos": "324300",
            "flags": "___",
            "side_data_list": [
                {
                    "side_data_type": "MPEGTS Stream ID",
                    "id": 224
                }
            ]
        },
        {
            "codec_type": "video",
            "stream_index": 1,
            "pts": 1143000,
            "pts_time": "12.700000",
            "dts": 1149000,
            "dts_time": "12.766667",
            "duration": 3000,
            "duration_time": "0.033333",
            "size": "462",
            "pos": "326556",
            "flags": "___",
            "side_data_list": [
                {
                    "side_data_type": "MPEGTS Stream ID",
                    "id": 224
                }
            ]
        },
        {
            "codec_type": "video",
            "stream_index": 1,
            "pts": 1149000,
            "pts_time": "12.766667",
            "dts": 1152000,
            "dts_time": "12.800000",
            "duration": 3000,
            "duration_time": "0.033333",
            "size": "450",
            "pos": "327496",
            "flags": "___",
            "side_data_list": [
                {
                    "side_data_type": "MPEGTS Stream ID",
                    "id": 224
                }
            ]
        },
        {
            "codec_type": "video",
            "stream_index": 1,
            "pts": 1164000,
            "pts_time": "12.933333",
            "dts": 1155000,
            "dts_time": "12.833333",
            "duration": 3000,
            "duration_time": "0.033333",
            "size": "8385",
            "pos": "328812",
            "flags": "___",
            "side_data_list": [
                {
                    "side_data_type": "MPEGTS Stream ID",
                    "id": 224
                }
            ]
        },
        {
            "codec_type": "video",
            "stream_index": 1,
            "pts": 1158000,
            "pts_time": "12.866667",
            "dts": 1158000,
            "dts_time": "12.866667",
            "duration": 3000,
            "duration_time": "0.033333",
            "size": "1292",
            "pos": "337836",
            "flags": "___",
            "side_data_list": [
                {
                    "side_data_type": "MPEGTS Stream ID",
                    "id": 224
                }
            ]
        },
        {
            "codec_type": "video",
            "stream_index": 1,
            "pts": 1155000,
            "pts_time": "12.833333",
            "dts": 1161000,
            "dts_time": "12.900000",
            "duration": 3000,
            "duration_time": "0.033333",
            "size": "429",
            "pos": "339716",
            "flags": "___",
            "side_data_list": [
                {
                    "side_data_type": "MPEGTS Stream ID",
                    "id": 224
                }
            ]
        },
        {
            "codec_type": "video",
            "stream_index": 1,
            "pts": 1161000,
            "pts_time": "12.900000",
            "dts": 1164000,
            "dts_time": "12.933333",
            "duration": 3000,
            "duration_time": "0.033333",
            "size": "381",
            "pos": "341032",
            "flags": "___",
            "side_data_list": [
                {
                    "side_data_type": "MPEGTS Stream ID",
                    "id": 224
                }
            ]
        },
        {
            "codec_type": "video",
            "stream_index": 1,
            "pts": 1167000,
            "pts_time": "12.966667",
            "dts": 1167000,
            "dts_time": "12.966667",
            "duration": 3000,
            "duration_time": "0.033333",
            "size": "3383",
            "pos": "341784",
            "flags": "___",
            "side_data_list": [
                {
                    "side_data_type": "MPEGTS Stream ID",
                    "id": 224
                }
            ]
        },
        {
            "codec_type": "video",
            "stream_index": 1,
            "pts": 1170000,
            "pts_time": "13.000000",
            "dts": 1170000,
            "dts_time": "13.000000",
            "duration": 3000,
            "duration_time": "0.033333",
            "size": "4102",
            "pos": "346108",
            "flags": "___",
            "side_data_list": [
                {
                    "side_data_type": "MPEGTS Stream ID",
                    "id": 224
                }
            ]
        },
        {
            "codec_type": "video",
            "stream_index": 1,
            "pts": 1182000,
            "pts_time": "13.133333",
            "dts": 1173000,
            "dts_time": "13.033333",
            "duration": 3000,
            "duration_time": "0.033333",
            "size": "7081",
            "pos": "350808",
            "flags": "___",
            "side_data_list": [
                {
                    "side_data_type": "MPEGTS Stream ID",
                    "id": 224
                }
            ]
        },
        {
            "codec_type": "video",
            "stream_index": 1,
            "pts": 1176000,
            "pts_time": "13.066667",
            "dts": 1176000,
            "dts_time": "13.066667",
            "duration": 3000,
            "duration_time": "0.033333",
            "size": "1068",
            "pos": "358892",
            "flags": "___",
            "side_data_list": [
                {
                    "side_data_type": "MPEGTS Stream ID",
                    "id": 224
                }
            ]
        },
        {
            "codec_type": "video",
            "stream_index": 1,
            "pts": 1173000,
            "pts_time": "13.033333",
            "dts": 1179000,
            "dts_time": "13.100000",
            "duration": 3000,
            "duration_time": "0.033333",
            "size": "377",
            "pos": "360396",
            "flags": "___",
            "side_data_list": [
                {
                    "side_data_type": "MPEGTS Stream ID",
                    "id": 224
                }
            ]
        },
        {
            "codec_type": "video",
            "stream_index": 1,
            "pts": 1179000,
            "pts_time": "13.100000",
            "dts": 1182000,
            "dts_time": "13.133333",
            "duration": 3000,
            "duration_time": "0.033333",
            "size": "340",
            "pos": "361336",
            "flags": "___",
            "side_data_list": [
                {
                    "side_data_type": "MPEGTS Stream ID",
                    "id": 224
                }
            ]
        },
        {
            "codec_type": "video",
            "stream_index": 1,
            "pts": 1194000,
            "pts_time": "13.266667",
            "dts": 1185000,
            "dts_time": "13.166667",
            "duration": 3000,
            "duration_time": "0.033333",
            "size": "8008",
            "pos": "362276",
            "flags": "___",
            "side_data_list": [
                {
                    "side_data_type": "MPEGTS Stream ID",
                    "id": 224
                }
            ]
        },
        {
            "codec_type": "video",
            "stream_index": 1,
            "pts": 1188000,
            "pts_time": "13.200000",
            "dts": 1188000,
            "dts_time": "13.200000",
            "duration": 3000,
            "duration_time": "0.033333",
            "size": "1307",
            "pos": "370924",
            "flags": "___",
            "side_data_list": [
                {
                    "side_data_type": "MPEGTS Stream ID",
                    "id": 224
                }
            ]
        },
        {
            "codec_type": "video",
            "stream_index": 1,
            "pts": 1185000,
            "pts_time": "13.166667",
            "dts": 1191000,
            "dts_time": "13.233333",
            "duration": 3000,
            "duration_time": "0.033333",
            "size": "401",
            "pos": "373180",
            "flags": "___",
            "side_data_list": [
                {
                    "side_data_type": "MPEGTS Stream ID",
                    "id": 224
                }
            ]
        },
        {
            "codec_type": "video",
            "stream_index": 1,
            "pts": 1191000,
            "pts_time": "13.233333",
            "dts": 1194000,
            "dts_time": "13.266667",
            "duration": 3000,
            "duration_time": "0.033333",
            "size": "473",
            "pos": "374120",
            "flags": "___",
            "side_data_list": [
                {
                    "side_data_type": "MPEGTS Stream ID",
                    "id": 224
                }
            ]
        },
        {
            "codec_type": "video",
            "stream_index": 1,
            "pts": 1206000,
            "pts_time": "13.400000",
            "dts": 1197000,
            "dts_time": "13.300000",
            "duration": 3000,
            "duration_time": "0.033333",
            "size": "9976",
            "pos": "375436",
            "flags": "___",
            "side_data_list": [
                {
                    "side_data_type": "MPEGTS Stream ID",
                    "id": 224
                }
            ]
        },
        {
            "codec_type": "video",
            "stream_index": 1,
            "pts": 1200000,
            "pts_time": "13.333333",
            "dts": 1200000,
            "dts_time": "13.333333",
            "duration": 3000,
            "duration_time": "0.033333",
            "size": "1684",
            "pos": "386152",
            "flags": "___",
            "side_data_list": [
                {
                    "side_data_type": "MPEGTS Stream ID",
                    "id": 224
                }
            ]
        },
        {
            "codec_type": "video",
            "stream_index": 1,
            "pts": 1197000,
            "pts_time": "13.300000",
            "dts": 1203000,
            "dts_time": "13.366667",
            "duration": 3000,
            "duration_time": "0.033333",
            "size": "580",
            "pos": "388220",
            "flags": "___",
            "side_data_list": [
                {
                    "side_data_type": "MPEGTS Stream ID",
                    "id": 224
                }
            ]
        },
        {
            "codec_type": "video",
            "stream_index": 1,
            "pts": 1203000,
            "pts_time": "13.366667",
            "dts": 1206000,
            "dts_time": "13.400000",
            "duration": 3000,
            "duration_time": "0.033333",
            "size": "606",
            "pos": "389724",
            "flags": "___",
            "side_data_list": [
                {
                    "side_data_type": "MPEGTS Stream ID",
                    "id": 224
                }
            ]
        },
        {
            "codec_type": "video",
            "stream_index": 1,
            "pts": 1218000,
            "pts_time": "13.533333",
            "dts": 1209000,
            "dts_time": "13.433333",
            "duration": 3000,
            "duration_time": "0.033333",
            "size": "9788",
            "pos": "390852",
            "flags": "___",
            "side_data_list": [
                {
                    "side_data_type": "MPEGTS Stream ID",
                    "id": 224
                }
            ]
        },
        {
            "codec_type": "video",
            "stream_index": 1,
            "pts": 1212000,
            "pts_time": "13.466667",
            "dts": 1212000,
            "dts_time": "13.466667",
            "duration": 3000,
            "duration_time": "0.033333",
            "size": "1811",
            "pos": "401756",
            "flags": "___",
            "side_data_list": [
                {
                    "side_data_type": "MPEGTS Stream ID",
                    "id": 224
                }
            ]
        },
        {
            "codec_type": "video",
            "stream_index": 1,
            "pts": 1209000,
            "pts_time": "13.433333",
            "dts": 1215000,
            "dts_time": "13.500000",
            "duration": 3000,
            "duration_time": "0.033333",
            "size": "623",
            "pos": "404012",
            "flags": "___",
            "side_data_list": [
                {
                    "side_data_type": "MPEGTS Stream ID",
                    "id": 224
                }
            ]
        },
        {
            "codec_type": "video",
            "stream_index": 1,
            "pts": 1215000,
            "pts_time": "13.500000",
            "dts": 1218000,
            "dts_time": "13.533333",
            "duration": 3000,
            "duration_time": "0.033333",
            "size": "564",
            "pos": "405516",
            "flags": "___",
            "side_data_list": [
                {
                    "side_data_type": "MPEGTS Stream ID",
                    "id": 224
                }
            ]
        },
        {
            "codec_type": "video",
            "stream_index": 1,
            "pts": 1230000,
            "pts_time": "13.666667",
            "dts": 1221000,
            "dts_time": "13.566667",
            "duration": 3000,
            "duration_time": "0.033333",
            "size": "8952",
            "pos": "406644",
            "flags": "___",
            "side_data_list": [
                {
                    "side_data_type": "MPEGTS Stream ID",
                    "id": 224
                }
            ]
        },
        {
            "codec_type": "video",
            "stream_index": 1,
            "pts": 1224000,
            "pts_time": "13.600000",
            "dts": 1224000,
            "dts_time": "13.600000",
            "duration": 3000,
            "duration_time": "0.033333",
            "size": "1471",
            "pos": "416420",
            "flags": "___",
            "side_data_list": [
                {
                    "side_data_type": "MPEGTS Stream ID",
                    "id": 224
                }
            ]
        },
        {
            "codec_type": "video",
            "stream_index": 1,
            "pts": 1221000,
            "pts_time": "13.566667",
            "dts": 1227000,
            "dts_time": "13.633333",
            "duration": 3000,
            "duration_time": "0.033333",
            "size": "530",
            "pos": "418488",
            "flags": "___",
            "side_data_list": [
                {
                    "side_data_type": "MPEGTS Stream ID",
                    "id": 224
                }
            ]
        },
        {
            "codec_type": "video",
            "stream_index": 1,
            "pts": 1227000,
            "pts_time": "13.633333",
            "dts": 1230000,
            "dts_time": "13.666667",
            "duration": 3000,
            "duration_time": "0.033333",
            "size": "527",
            "pos": "419616",
            "flags": "___",
            "side_data_list": [
                {
                    "side_data_type": "MPEGTS Stream ID",
                    "id": 224
                }
            ]
        },
        {
            "codec_type": "video",
            "stream_index": 1,
            "pts": 1242000,
            "pts_time": "13.800000",
            "dts": 1233000,
            "dts_time": "13.700000",
            "duration": 3000,
            "duration_time": "0.033333",
            "size": "6746",
            "pos": "421120",
            "flags": "___",
            "side_data_list": [
                {
                    "side_data_type": "MPEGTS Stream ID",
                    "id": 224
                }
            ]
        },
        {
            "codec_type": "video",
            "stream_index": 1,
            "pts": 1236000,
            "pts_time": "13.733333",
            "dts": 1236000,
            "dts_time": "13.733333",
            "duration": 3000,
            "duration_time": "0.033333",
            "size": "1279",
            "pos": "428452",
            "flags": "___",
            "side_data_list": [
                {
                    "side_data_type": "MPEGTS Stream ID",
                    "id": 224
                }
            ]
        },
        {
            "codec_type": "video",
            "stream_index": 1,
            "pts": 1233000,
            "pts_time": "13.700000",
            "dts": 1239000,
            "dts_time": "13.766667",
            "duration": 3000,
            "duration_time": "0.033333",
            "size": "517",
            "pos": "430708",
            "flags": "___",
            "side_data_list": [
                {
                    "side_data_type": "MPEGTS Stream ID",
                    "id": 224
                }
            ]
        },
        {
            "codec_type": "video",
            "stream_index": 1,
            "pts": 1239000,
            "pts_time": "13.766667",
            "dts": 1242000,
            "dts_time": "13.800000",
            "duration": 3000,
            "duration_time": "0.033333",
            "size": "462",
            "pos": "431460",
            "flags": "___",
            "side_data_list": [
                {
                    "side_data_type": "MPEGTS Stream ID",
                    "id": 224
                }
            ]
        },
        {
            "codec_type": "video",
            "stream_index": 1,
            "pts": 1254000,
            "pts_time": "13.933333",
            "dts": 1245000,
            "dts_time": "13.833333",
            "duration": 3000,
            "duration_time": "0.033333",
            "size": "7036",
            "pos": "432776",
            "flags": "___",
            "side_data_list": [
                {
                    "side_data_type": "MPEGTS Stream ID",
                    "id": 224
                }
            ]
        },
        {
            "codec_type": "video",
            "stream_index": 1,
            "pts": 1248000,
            "pts_time": "13.866667",
            "dts": 1248000,
            "dts_time": "13.866667",
            "duration": 3000,
            "duration_time": "0.033333",
            "size": "1293",
            "pos": "440484",
            "flags": "___",
            "side_data_list": [
                {
                    "side_data_type": "MPEGTS Stream ID",
                    "id": 224
                }
            ]
        },
        {
            "codec_type": "video",
            "stream_index": 1,
            "pts": 1245000,
            "pts_time": "13.833333",
            "dts": 1251000,
            "dts_time": "13.900000",
            "duration": 3000,
            "duration_time": "0.033333",
            "size": "476",
            "pos": "442364",
            "flags": "___",
            "side_data_list": [
                {
                    "side_data_type": "MPEGTS Stream ID",
                    "id": 224
                }
            ]
        },
        {
            "codec_type": "video",
            "stream_index": 1,
            "pts": 1251000,
            "pts_time": "13.900000",
            "dts": 1254000,
            "dts_time": "13.933333",
            "duration": 3000,
            "duration_time": "0.033333",
            "size": "471",
            "pos": "443680",
            "flags": "___",
            "side_data_list": [
                {
                    "side_data_type": "MPEGTS Stream ID",
                    "id": 224
                }
            ]
        },
        {
            "codec_type": "video",
            "stream_index": 1,
            "pts": 1257000,
            "pts_time": "13.966667",
            "dts": 1257000,
            "dts_time": "13.966667",
            "duration": 3000,
            "duration_time": "0.033333",
            "size": "1472",
            "pos": "444620",
            "flags": "___"
        }
    ]
}
